<svg xmlns="http://www.w3.org/2000/svg" xmlns:xlink="http://www.w3.org/1999/xlink" id="OBJECTS" viewBox="0 0 78.15 79.8"><defs><style>      .cls-1 {        fill: #ff4a17;      }      .cls-2 {        fill: url(#linear-gradient-2);      }      .cls-3 {        fill: #daff00;      }      .cls-4 {        fill: url(#linear-gradient-4);      }      .cls-5 {        fill: #0086ff;      }      .cls-6 {        fill: url(#linear-gradient-3);      }      .cls-7 {        fill: url(#linear-gradient-5);      }      .cls-8 {        fill: #c00;      }      .cls-9 {        fill: #2d3640;      }      .cls-10 {        fill: url(#linear-gradient);      }    </style><linearGradient id="linear-gradient" x1="-18.27" y1="81.67" x2="32.27" y2="-6.63" gradientTransform="translate(30.87 39.4) rotate(-161.58)" gradientUnits="userSpaceOnUse"><stop offset="0" stop-color="#658bc7"></stop><stop offset="1" stop-color="#6d5fa4"></stop></linearGradient><linearGradient id="linear-gradient-2" x1="-21.2" y1="80" x2="29.34" y2="-8.3" gradientTransform="translate(14.45 51.18) rotate(-165.58)" xlink:href="#linear-gradient"></linearGradient><linearGradient id="linear-gradient-3" x1="3.8" y1="94.3" x2="54.34" y2="6" gradientTransform="translate(11.53 -5.07) rotate(12.46)" xlink:href="#linear-gradient"></linearGradient><linearGradient id="linear-gradient-4" x1="-4.42" y1="89.6" x2="46.12" y2="1.3" gradientTransform="translate(-18.38 9.45) rotate(-21.2)" xlink:href="#linear-gradient"></linearGradient><linearGradient id="linear-gradient-5" x1="6.2" y1="95.68" x2="56.74" y2="7.38" gradientTransform="translate(13.01 -4.74) rotate(12.46)" xlink:href="#linear-gradient"></linearGradient></defs><path class="cls-9" d="M62.15,6.23c2.19,0,4.27.43,6.22,1.28,1.92.85,3.61,2.01,5.07,3.47,1.46,1.46,2.62,3.15,3.47,5.07.82,1.95,1.23,4.01,1.23,6.17v41.59c0,2.19-.41,4.25-1.23,6.17-.85,1.95-2.01,3.66-3.47,5.12-1.46,1.46-3.15,2.61-5.07,3.43-1.95.85-4.02,1.28-6.22,1.28H24.63v-14.51h7.77v6.74h29.75c1.13,0,2.19-.23,3.2-.69.97-.43,1.84-1.02,2.6-1.78s1.33-1.6,1.78-2.6c.43-.97.64-2.03.64-3.15V22.22c0-1.13-.21-2.19-.64-3.2-.46-.97-1.05-1.83-1.78-2.56-.76-.73-1.63-1.31-2.6-1.74-1.01-.43-2.07-.64-3.2-.64h-21.98v-7.86h21.98Z"></path><rect class="cls-1" x="24.54" y="10.54" width="13.06" height="13.06" transform="translate(-3.97 11.73) rotate(-20.12)"></rect><rect class="cls-3" x="16.12" y="21.76" width="6.53" height="6.53" transform="translate(-5.72 5.75) rotate(-14.72)"></rect><rect class="cls-9" x="2.67" y="9.09" width="6.53" height="6.53" transform="translate(-2.95 1.91) rotate(-14.72)"></rect><rect class="cls-5" x="10.61" y="1.16" width="10.44" height="10.44" transform="translate(-1.1 4.23) rotate(-14.72)"></rect><rect class="cls-9" x="24.7" y="1.9" width="3.85" height="3.85" transform="translate(53.52 3.69) rotate(171.55)"></rect><rect class="cls-8" x="5.73" y="18.18" width="2.74" height="2.74" transform="translate(18.84 36.72) rotate(165.58)"></rect><rect class="cls-10" x="16.11" y="14.67" width="5.04" height="5.04" transform="translate(41.74 27.63) rotate(161.58)"></rect><rect class="cls-2" x="9.75" y="23.96" width="1.43" height="1.43" transform="translate(26.74 45.97) rotate(165.58)"></rect><rect class="cls-5" x="1.49" y="59.31" width="8.56" height="8.56" transform="translate(40.02 117.48) rotate(152.74)"></rect><rect class="cls-3" x="15.59" y="58.46" width="7.44" height="7.44" transform="translate(51.28 118.9) rotate(167.85)"></rect><rect class="cls-1" x="22.74" y="38.66" width="7.44" height="7.44" transform="translate(61.25 78.24) rotate(167.85)"></rect><rect class="cls-5" x="30.58" y="28.21" width="7.44" height="7.44" transform="translate(74.55 55.93) rotate(167.85)"></rect><rect class="cls-9" x="7.37" y="35.45" width="11.9" height="11.9" transform="translate(35.05 79.08) rotate(167.85)"></rect><rect class="cls-6" x="27.43" y="48.73" width="3.12" height="3.12" transform="translate(-10.17 7.44) rotate(-12.46)"></rect><rect class="cls-4" x="13.18" y="50.97" width="5.75" height="5.75" transform="translate(20.55 -2.16) rotate(21.2)"></rect><rect class="cls-7" x="27.39" y="56.42" width="1.63" height="1.63" transform="translate(-11.68 7.43) rotate(-12.46)"></rect></svg>