<svg xmlns="http://www.w3.org/2000/svg" id="OBJECTS" viewBox="0 0 384.26 108.15"><defs><style>      .cls-1 {        fill: #ff4a17;      }      .cls-2 {        fill: #fff;      }      .cls-3 {        fill: #daff00;      }      .cls-4 {        fill: #0086ff;      }      .cls-5 {        fill: #c00;      }      .cls-6 {        fill: #e8e8e8;      }    </style></defs><g><path class="cls-1" d="M28.49,108.15c-1.19,0-2.23-.26-3.12-.78s-1.58-1.25-2.07-2.19-.74-2.04-.74-3.3v-4.61c0-1.26.25-2.37.74-3.31.49-.94,1.18-1.67,2.07-2.19s1.93-.78,3.12-.78c.98,0,1.88.21,2.7.63.82.42,1.5,1,2.05,1.75s.92,1.62,1.12,2.62h-2.45c-.15-.54-.4-1.01-.74-1.42-.35-.4-.76-.72-1.22-.94-.47-.22-.95-.34-1.45-.34-1.05,0-1.89.36-2.53,1.09s-.95,1.69-.95,2.89v4.61c0,1.2.32,2.15.95,2.88s1.48,1.09,2.53,1.09c.74,0,1.44-.23,2.1-.69s1.1-1.13,1.32-2h2.45c-.2,1-.57,1.88-1.12,2.62-.55.75-1.24,1.33-2.05,1.75-.81.42-1.71.62-2.69.62h-.02Z"></path><path class="cls-1" d="M47.72,108.15c-1.2,0-2.25-.26-3.15-.77-.9-.51-1.6-1.24-2.09-2.17-.5-.93-.74-2.02-.74-3.26v-4.76c0-1.25.25-2.34.74-3.27.5-.93,1.19-1.65,2.09-2.16s1.95-.77,3.15-.77,2.25.26,3.15.77c.9.51,1.6,1.23,2.09,2.16.5.93.74,2.02.74,3.27v4.76c0,1.24-.25,2.33-.74,3.26-.5.93-1.19,1.66-2.09,2.17-.9.51-1.95.77-3.15.77ZM47.72,105.82c1.07,0,1.93-.35,2.57-1.04s.97-1.61.97-2.75v-4.93c0-1.15-.32-2.07-.97-2.76s-1.5-1.03-2.57-1.03-1.92.34-2.57,1.03-.97,1.61-.97,2.76v4.93c0,1.14.32,2.06.97,2.75s1.5,1.04,2.57,1.04Z"></path><path class="cls-1" d="M62.14,107.96v-16.8h2.17l8.33,13-.28.3v-13.3h2.37v16.8h-2.19l-8.31-12.8.28-.3v13.1h-2.37Z"></path><path class="cls-1" d="M83.74,107.96v-16.8h2.17l8.33,13-.28.3v-13.3h2.37v16.8h-2.19l-8.31-12.8.28-.3v13.1h-2.37Z"></path><path class="cls-1" d="M105.35,107.97v-16.81h2.39v16.81h-2.39ZM106.51,93.4v-2.24h9.78v2.24h-9.78ZM106.51,100.75v-2.24h8.49v2.24h-8.49ZM106.51,107.97v-2.24h9.78v2.24h-9.78Z"></path><path class="cls-1" d="M130.06,108.15c-1.19,0-2.23-.26-3.12-.78s-1.58-1.25-2.07-2.19-.74-2.04-.74-3.3v-4.61c0-1.26.25-2.37.74-3.31.49-.94,1.18-1.67,2.07-2.19s1.93-.78,3.12-.78c.98,0,1.88.21,2.7.63.82.42,1.5,1,2.05,1.75s.92,1.62,1.12,2.62h-2.45c-.15-.54-.4-1.01-.74-1.42-.35-.4-.76-.72-1.22-.94-.47-.22-.95-.34-1.45-.34-1.05,0-1.89.36-2.53,1.09s-.95,1.69-.95,2.89v4.61c0,1.2.32,2.15.95,2.88.63.73,1.48,1.09,2.53,1.09.74,0,1.44-.23,2.1-.69s1.1-1.13,1.32-2h2.45c-.2,1-.57,1.88-1.12,2.62-.55.75-1.24,1.33-2.05,1.75s-1.71.62-2.69.62h-.02Z"></path><path class="cls-1" d="M141.79,93.4v-2.24h12.02v2.24h-12.02ZM146.6,107.97v-15.44h2.39v15.44h-2.39Z"></path><path class="cls-1" d="M163.34,91.16v16.81h-2.39v-16.81h2.39Z"></path><path class="cls-1" d="M178,108.15c-1.2,0-2.25-.26-3.15-.77-.9-.51-1.6-1.24-2.09-2.17-.5-.93-.74-2.02-.74-3.26v-4.76c0-1.25.25-2.34.74-3.27.5-.93,1.19-1.65,2.09-2.16s1.95-.77,3.15-.77,2.25.26,3.15.77c.9.51,1.6,1.23,2.09,2.16.5.93.74,2.02.74,3.27v4.76c0,1.24-.25,2.33-.74,3.26-.5.93-1.19,1.66-2.09,2.17-.9.51-1.95.77-3.15.77ZM178,105.82c1.07,0,1.93-.35,2.57-1.04.64-.69.97-1.61.97-2.75v-4.93c0-1.15-.32-2.07-.97-2.76s-1.5-1.03-2.57-1.03-1.92.34-2.57,1.03c-.65.69-.97,1.61-.97,2.76v4.93c0,1.14.32,2.06.97,2.75s1.5,1.04,2.57,1.04Z"></path><path class="cls-1" d="M192.42,107.96v-16.8h2.17l8.33,13-.28.3v-13.3h2.37v16.8h-2.19l-8.31-12.8.28-.3v13.1h-2.37Z"></path></g><g><path class="cls-4" d="M230.38,108.15c-.83,0-1.61-.08-2.34-.23s-1.41-.39-2.05-.69c-.64-.31-1.23-.69-1.79-1.16l1.49-1.8c.65.56,1.36.97,2.14,1.25s1.63.42,2.54.42c1.23,0,2.19-.23,2.87-.68.68-.46,1.02-1.09,1.02-1.91h0c0-.65-.17-1.14-.52-1.48-.34-.34-.79-.59-1.35-.76-.56-.17-1.17-.3-1.83-.41-.64-.11-1.29-.23-1.94-.38s-1.25-.38-1.8-.69c-.55-.31-.99-.76-1.32-1.35s-.5-1.37-.5-2.35h0c0-1.58.53-2.79,1.58-3.65s2.54-1.29,4.46-1.29c.91,0,1.81.14,2.68.43s1.73.73,2.55,1.32l-1.36,1.87c-.65-.48-1.29-.83-1.94-1.06-.64-.23-1.29-.35-1.94-.35-1.16,0-2.07.23-2.71.69s-.97,1.11-.97,1.95h0c0,.64.19,1.13.56,1.46s.86.58,1.47.73c.61.16,1.26.31,1.95.45.63.12,1.25.27,1.87.44.63.17,1.19.42,1.71.75.51.33.92.78,1.23,1.35s.46,1.31.46,2.23v.02c0,1.55-.55,2.75-1.64,3.6s-2.63,1.27-4.62,1.27h.04Z"></path><path class="cls-4" d="M250,108.15c-1.2,0-2.25-.26-3.15-.77-.9-.51-1.6-1.24-2.09-2.17-.5-.93-.74-2.02-.74-3.26v-4.76c0-1.25.25-2.34.74-3.27.5-.93,1.19-1.65,2.09-2.16s1.95-.77,3.15-.77,2.25.26,3.15.77c.9.51,1.6,1.23,2.09,2.16.5.93.74,2.02.74,3.27v4.76c0,1.24-.25,2.33-.74,3.26-.5.93-1.19,1.66-2.09,2.17-.9.51-1.95.77-3.15.77ZM250,105.82c1.07,0,1.93-.35,2.57-1.04.64-.69.97-1.61.97-2.75v-4.93c0-1.15-.32-2.07-.97-2.76s-1.5-1.03-2.57-1.03-1.92.34-2.57,1.03c-.65.69-.97,1.61-.97,2.76v4.93c0,1.14.32,2.06.97,2.75s1.5,1.04,2.57,1.04Z"></path><path class="cls-4" d="M264.42,107.97v-16.81h2.39v16.81h-2.39ZM265.62,107.97v-2.24h9.75v2.24h-9.75Z"></path><path class="cls-4" d="M288.25,108.15c-1.9,0-3.37-.55-4.41-1.64s-1.56-2.63-1.56-4.62v-10.73h2.39v10.81c0,1.23.31,2.17.94,2.84.62.67,1.51,1.01,2.65,1.01s2.04-.34,2.67-1.01.94-1.62.94-2.84v-10.81h2.39v10.73c0,1.99-.52,3.53-1.57,4.62-1.05,1.09-2.52,1.64-4.43,1.64h-.01Z"></path><path class="cls-4" d="M300.69,93.4v-2.24h12.02v2.24h-12.02ZM305.5,107.97v-15.44h2.39v15.44h-2.39Z"></path><path class="cls-4" d="M322.24,91.16v16.81h-2.39v-16.81h2.39Z"></path><path class="cls-4" d="M336.9,108.15c-1.2,0-2.25-.26-3.15-.77-.9-.51-1.6-1.24-2.09-2.17-.5-.93-.74-2.02-.74-3.26v-4.76c0-1.25.25-2.34.74-3.27.5-.93,1.19-1.65,2.09-2.16s1.95-.77,3.15-.77,2.25.26,3.15.77c.9.51,1.6,1.23,2.09,2.16.5.93.74,2.02.74,3.27v4.76c0,1.24-.25,2.33-.74,3.26-.5.93-1.19,1.66-2.09,2.17-.9.51-1.95.77-3.15.77ZM336.9,105.82c1.07,0,1.93-.35,2.57-1.04s.97-1.61.97-2.75v-4.93c0-1.15-.32-2.07-.97-2.76s-1.5-1.03-2.57-1.03-1.92.34-2.57,1.03-.97,1.61-.97,2.76v4.93c0,1.14.32,2.06.97,2.75s1.5,1.04,2.57,1.04Z"></path><path class="cls-4" d="M351.32,107.96v-16.8h2.17l8.33,13-.28.3v-13.3h2.37v16.8h-2.19l-8.31-12.8.28-.3v13.1h-2.37Z"></path><path class="cls-4" d="M378.04,108.15c-.83,0-1.61-.08-2.34-.23s-1.41-.39-2.05-.69c-.64-.31-1.23-.69-1.79-1.16l1.49-1.8c.65.56,1.36.97,2.14,1.25.78.28,1.63.42,2.54.42,1.23,0,2.19-.23,2.87-.68.68-.46,1.02-1.09,1.02-1.91h0c0-.65-.17-1.14-.52-1.48-.34-.34-.79-.59-1.35-.76-.56-.17-1.17-.3-1.83-.41-.64-.11-1.29-.23-1.94-.38s-1.25-.38-1.8-.69c-.55-.31-.99-.76-1.32-1.35s-.5-1.37-.5-2.35h0c0-1.58.53-2.79,1.58-3.65s2.54-1.29,4.46-1.29c.91,0,1.81.14,2.68.43s1.73.73,2.55,1.32l-1.36,1.87c-.65-.48-1.29-.83-1.94-1.06-.64-.23-1.29-.35-1.94-.35-1.16,0-2.07.23-2.71.69-.64.46-.97,1.11-.97,1.95h0c0,.64.19,1.13.56,1.46s.86.58,1.47.73c.61.16,1.26.31,1.95.45.63.12,1.25.27,1.87.44.63.17,1.19.42,1.71.75.51.33.92.78,1.23,1.35s.46,1.31.46,2.23v.02c0,1.55-.55,2.75-1.64,3.6-1.09.85-2.63,1.27-4.62,1.27h.04Z"></path></g><path class="cls-2" d="M62.15,6.23c2.19,0,4.27.43,6.22,1.28,1.92.85,3.61,2.01,5.07,3.47s2.62,3.15,3.47,5.07c.82,1.95,1.23,4.01,1.23,6.17v41.59c0,2.19-.41,4.25-1.23,6.17-.85,1.95-2.01,3.66-3.47,5.12s-3.15,2.61-5.07,3.43c-1.95.85-4.02,1.28-6.22,1.28H24.63v-14.51h7.77v6.74h29.75c1.13,0,2.19-.23,3.2-.69.97-.43,1.84-1.02,2.6-1.78s1.33-1.6,1.78-2.6c.43-.97.64-2.03.64-3.15V22.22c0-1.13-.21-2.19-.64-3.2-.46-.97-1.05-1.83-1.78-2.56-.76-.73-1.63-1.31-2.6-1.74-1.01-.43-2.07-.64-3.2-.64h-21.98v-7.86h21.98Z"></path><rect class="cls-1" x="24.55" y="10.54" width="13.06" height="13.06" transform="translate(-3.97 11.73) rotate(-20.12)"></rect><rect class="cls-3" x="16.12" y="21.76" width="6.53" height="6.53" transform="translate(-5.72 5.75) rotate(-14.72)"></rect><rect class="cls-2" x="2.66" y="9.08" width="6.53" height="6.53" transform="translate(-2.94 1.91) rotate(-14.72)"></rect><rect class="cls-4" x="10.61" y="1.16" width="10.44" height="10.44" transform="translate(-1.1 4.23) rotate(-14.72)"></rect><rect class="cls-2" x="24.7" y="1.89" width="3.85" height="3.85" transform="translate(-.27 3.95) rotate(-8.45)"></rect><rect class="cls-5" x="5.73" y="18.18" width="2.74" height="2.74" transform="translate(-4.65 2.38) rotate(-14.42)"></rect><rect class="cls-6" x="16.11" y="14.68" width="5.04" height="5.04" transform="translate(-4.48 6.77) rotate(-18.42)"></rect><rect class="cls-6" x="9.75" y="23.96" width="1.43" height="1.43" transform="translate(-5.82 3.38) rotate(-14.42)"></rect><rect class="cls-4" x="1.49" y="59.31" width="8.56" height="8.56" transform="translate(-28.49 9.7) rotate(-27.26)"></rect><rect class="cls-3" x="15.6" y="58.45" width="7.44" height="7.44" transform="translate(-12.65 5.46) rotate(-12.15)"></rect><rect class="cls-1" x="22.74" y="38.66" width="7.44" height="7.44" transform="translate(-8.33 6.52) rotate(-12.15)"></rect><rect class="cls-4" x="30.58" y="28.21" width="7.44" height="7.44" transform="translate(-5.95 7.93) rotate(-12.15)"></rect><rect class="cls-2" x="7.37" y="35.46" width="11.9" height="11.9" transform="translate(-8.42 3.73) rotate(-12.15)"></rect><rect class="cls-6" x="27.43" y="48.73" width="3.12" height="3.12" transform="translate(-10.17 7.44) rotate(-12.46)"></rect><rect class="cls-6" x="13.17" y="50.97" width="5.75" height="5.75" transform="translate(-39.96 49.33) rotate(-68.8)"></rect><rect class="cls-6" x="27.39" y="56.41" width="1.63" height="1.63" transform="translate(-11.68 7.43) rotate(-12.46)"></rect><g><path class="cls-2" d="M87.01,79.97V7.09h9.56v72.88h-9.56Z"></path><path class="cls-2" d="M111.6,43.69c0-20.73,16.08-37.87,36.68-37.87,9.56,0,18.08,3.7,24.38,9.52l-6.62,6.24c-4.63-4.13-10.93-6.88-17.76-6.88-15.24,0-27.12,13.33-27.12,28.98s11.88,28.66,27.12,28.66c13.03,0,23.75-8.89,23.75-20.52h-21.02v-8.36h31.53c0,25.49-13.66,37.76-34.26,37.76s-36.68-16.92-36.68-37.55v.02Z"></path><path class="cls-2" d="M196.2,79.97V7.09h9.56v72.88h-9.56Z"></path><path class="cls-2" d="M271.55,7.09v8.89h-22.07v63.99h-9.56V15.98h-22.07V7.09h53.7Z"></path><path class="cls-2" d="M322.94,79.97l-7.04-18.72h-31.11l-7.04,18.72h-9.98l27.53-72.88h10.09l27.54,72.88h-9.99ZM287.94,52.79h24.8l-12.4-33.11-12.4,33.11Z"></path><path class="cls-2" d="M352.78,71.09h29.64v8.88h-39.2V7.09h9.56v63.99h0Z"></path></g></svg>